<?xml version="1.0" standalone="no"?>
<!DOCTYPE svg PUBLIC "-//W3C//DTD SVG 20010904//EN"
 "http://www.w3.org/TR/2001/REC-SVG-20010904/DTD/svg10.dtd">
<svg version="1.0" xmlns="http://www.w3.org/2000/svg"
 width="1000.000000pt" height="560.000000pt" viewBox="0 0 1000.000000 560.000000"
 preserveAspectRatio="xMidYMid meet">

<g transform="translate(0.000000,560.000000) scale(0.100000,-0.100000)"
fill="#000000" stroke="none">
<path d="M9565 4523 c6 -5 39 -36 75 -68 58 -53 60 -54 20 -11 -25 26 -58 57
-75 68 -16 12 -25 17 -20 11z"/>
<path d="M8367 3765 c-9 -19 -15 -35 -12 -35 7 0 37 61 33 66 -3 2 -12 -12
-21 -31z"/>
<path d="M980 3660 c-6 -11 -8 -20 -6 -20 3 0 10 9 16 20 6 11 8 20 6 20 -3 0
-10 -9 -16 -20z"/>
<path d="M9045 3656 c50 -8 119 -21 154 -30 35 -10 65 -15 67 -13 9 9 -167 47
-237 51 l-74 5 90 -13z"/>
<path d="M8845 3640 c4 -6 11 -8 16 -5 14 9 11 15 -7 15 -8 0 -12 -5 -9 -10z"/>
<path d="M7754 3618 l-19 -23 23 19 c21 18 27 26 19 26 -2 0 -12 -10 -23 -22z"/>
<path d="M8763 3633 c13 -3 3 -14 -40 -40 -32 -19 -69 -44 -83 -57 -88 -78
-377 -276 -403 -276 -4 0 -8 33 -9 73 l-2 72 -5 -75 -6 -75 -50 -27 c-139 -76
-526 -219 -533 -198 -2 5 -13 3 -26 -5 -20 -13 -74 -23 -220 -41 -35 -4 -45
-8 -35 -15 8 -5 11 -9 8 -9 -4 0 -46 -7 -94 -15 -136 -24 -350 -105 -350 -132
0 -6 -4 -15 -9 -20 -5 -4 -6 -3 -2 4 3 6 2 14 -3 17 -5 4 -24 -12 -41 -34 -17
-22 -28 -40 -23 -40 6 0 15 10 22 23 7 13 22 24 34 25 61 5 149 31 142 42 -3
4 4 6 15 3 11 -3 20 -9 20 -14 0 -4 13 -7 29 -6 18 1 27 7 24 15 -4 8 0 10 13
5 12 -4 15 -3 10 6 -4 6 -4 10 1 9 4 -1 19 4 33 11 14 8 3 -6 -24 -30 -87 -77
-130 -108 -151 -109 -11 0 -39 0 -62 0 -23 0 -51 -4 -63 -8 -21 -8 -21 -9 -4
-23 11 -8 15 -9 10 -2 -5 9 -2 11 10 6 12 -4 15 -3 10 5 -5 8 -1 10 10 5 13
-5 1 -14 -47 -37 -35 -16 -66 -33 -69 -37 -3 -3 -14 -3 -25 1 -16 6 -9 11 35
29 44 17 48 20 20 16 -32 -5 -33 -5 -17 9 13 10 15 16 6 21 -11 8 -29 -11 -29
-31 0 -6 -10 -16 -23 -23 -27 -15 -33 -44 -7 -36 10 3 17 0 17 -9 0 -9 -4 -13
-8 -11 -11 8 -69 -16 -64 -26 3 -4 -29 -27 -72 -49 -91 -47 -62 -43 47 7 157
73 178 79 113 36 -10 -7 0 -6 22 3 64 25 145 31 230 15 52 -9 65 -7 65 10 0 6
-4 7 -10 4 -5 -3 -15 -3 -22 1 -17 11 18 22 72 24 25 1 39 4 32 7 -20 8 34 33
72 33 l31 0 -25 13 c-14 8 -32 15 -40 16 -50 7 -97 7 -112 0 -9 -5 -19 -5 -22
-1 -6 10 35 28 158 68 56 18 102 29 104 24 2 -4 47 14 100 40 110 56 123 63
250 143 52 33 178 99 280 149 297 142 532 262 592 300 172 110 239 130 292 89
24 -19 24 -19 25 0 1 11 -4 19 -10 18 -7 -1 -23 1 -37 4 -48 13 -100 16 -100
5 0 -6 -6 -6 -15 2 -14 12 -20 5 -17 -22 1 -3 -5 -8 -12 -11 -9 -4 -12 2 -8
19 6 30 47 64 78 64 15 0 24 6 24 15 0 8 6 15 14 15 23 0 78 -51 72 -67 -3 -8
-2 -12 3 -9 4 3 17 -14 27 -37 10 -23 22 -45 27 -48 5 -3 9 -10 9 -15 1 -20
25 -62 70 -126 54 -77 90 -146 124 -235 13 -35 24 -65 24 -67 0 -4 -209 -136
-252 -159 -54 -30 -129 -80 -125 -84 3 -2 27 10 54 26 45 28 60 31 159 37 60
3 115 11 123 17 11 9 13 9 8 0 -5 -8 4 -11 35 -10 71 3 60 -22 -34 -78 -207
-122 -398 -265 -398 -299 0 -7 -14 -25 -32 -42 -17 -16 -28 -23 -24 -16 7 11
4 11 -11 2 -16 -10 -27 -8 -62 10 -24 12 -45 19 -48 17 -2 -3 5 -8 16 -12 12
-3 18 -11 15 -17 -4 -7 -2 -8 4 -4 6 4 21 2 33 -4 20 -11 20 -12 3 -31 -13
-14 -26 -18 -44 -14 -14 3 -20 2 -15 -2 16 -12 16 -33 1 -27 -8 3 -17 1 -21
-5 -3 -6 -27 -11 -53 -11 -28 0 -42 -4 -34 -8 8 -6 1 -12 -24 -20 -20 -6 -33
-8 -30 -5 3 3 -2 12 -12 19 -16 12 -16 13 0 14 9 0 20 5 24 12 5 8 0 9 -14 5
-24 -6 -104 13 -141 33 -36 19 -15 -5 25 -29 19 -12 32 -16 29 -11 -4 7 3 8
22 4 40 -10 39 -11 -12 -18 -38 -6 -53 -3 -98 20 -73 39 -104 70 -139 138 -28
55 -61 147 -55 153 2 1 23 5 47 8 34 5 41 4 30 -4 -12 -9 -9 -10 11 -5 15 3
30 1 33 -5 4 -6 17 -11 29 -10 21 0 21 1 -2 10 -13 5 -39 16 -57 25 -24 12
-37 13 -53 5 -31 -17 -51 -13 -51 9 0 17 3 18 26 10 16 -7 23 -7 19 0 -3 6
-12 10 -20 10 -7 0 -21 7 -29 16 -9 8 -16 13 -16 10 0 -4 -17 1 -37 10 -60 25
-71 27 -30 4 44 -24 47 -33 10 -25 -27 6 -27 6 -9 -9 11 -9 27 -16 37 -16 15
0 47 -27 38 -33 -2 -2 -26 -11 -54 -20 -42 -13 -44 -15 -13 -11 39 6 78 -2 78
-16 0 -5 -15 -11 -32 -13 l-33 -4 36 -1 c33 -2 38 -6 67 -62 l32 -60 -38 -1
c-33 -2 -34 -2 -7 -6 52 -7 63 -15 30 -23 l-30 -8 36 -1 c24 -1 39 -7 43 -18
6 -15 -3 -15 -96 -8 -57 5 -122 7 -145 7 -24 -1 -43 2 -43 7 0 5 10 7 23 4 12
-2 2 5 -22 17 -25 11 -51 26 -58 32 -9 7 -13 7 -13 -1 0 -6 10 -15 22 -20 13
-5 17 -10 10 -15 -6 -3 -13 -2 -17 4 -3 5 -12 10 -19 10 -8 0 -42 19 -76 42
l-62 41 52 20 c68 25 57 33 -20 13 -75 -19 -73 -19 -67 -3 4 10 -2 13 -19 9
-19 -3 -22 -7 -13 -18 15 -19 -3 -19 -44 0 -18 8 -54 24 -81 35 -47 20 -49 20
-32 2 17 -19 17 -19 -21 -6 -58 19 -99 28 -88 18 6 -5 28 -15 50 -22 22 -7 68
-27 103 -43 58 -27 62 -31 45 -44 -17 -13 -17 -13 2 -14 11 0 31 -7 43 -16 12
-8 27 -12 32 -9 14 8 112 -54 104 -66 -3 -5 1 -9 8 -9 7 0 25 -11 39 -24 15
-14 44 -27 65 -30 37 -5 38 -5 12 6 -16 7 -28 15 -28 20 0 12 28 10 53 -4 12
-6 33 -12 47 -13 14 -1 70 -14 125 -28 55 -14 150 -38 210 -53 158 -38 233
-72 193 -87 -7 -2 0 -3 15 -1 l28 4 -19 -28 c-34 -50 -36 -56 -10 -36 15 10
25 24 25 29 -1 6 9 9 23 8 14 -1 18 0 8 3 -19 6 -25 24 -8 24 6 0 28 -9 49
-20 21 -10 41 -17 44 -14 3 3 23 -4 46 -16 23 -11 41 -18 41 -15 0 2 -15 12
-32 21 -39 19 -68 53 -61 70 3 7 16 20 30 29 24 16 24 16 13 -7 -6 -13 8 -3
32 23 43 47 112 99 131 99 5 0 3 -7 -4 -17 -13 -15 -12 -15 10 -4 12 7 33 10
45 8 l21 -6 -21 17 c-21 17 -20 18 66 68 82 48 92 51 161 53 54 1 78 6 89 18
13 15 13 16 -1 5 -12 -9 -19 -9 -29 1 -7 6 -10 7 -7 2 3 -6 -3 -11 -14 -11
-10 0 -19 1 -19 2 0 5 55 36 66 38 7 1 17 6 21 11 4 4 2 5 -4 1 -21 -12 -15 5
9 25 27 24 42 24 34 2 -6 -17 -5 -17 8 0 13 17 18 17 112 -4 55 -13 101 -24
103 -26 3 -2 -6 -14 -18 -26 -16 -15 -25 -18 -28 -10 -3 9 -10 9 -21 3 -9 -6
-46 -14 -82 -20 l-65 -9 85 4 c47 3 99 7 115 10 29 6 28 4 -20 -37 -66 -56
-204 -192 -185 -182 8 4 25 20 37 35 30 36 179 161 223 188 19 11 49 21 65 21
21 0 26 3 16 9 -26 16 104 80 249 122 36 11 71 19 77 19 19 0 16 -24 -7 -50
-11 -13 -20 -27 -20 -32 0 -5 -15 -15 -32 -23 -28 -12 -29 -14 -10 -15 12 0
22 -4 22 -9 0 -25 -148 -142 -253 -201 -64 -36 -118 -70 -121 -77 -8 -18 213
115 285 173 144 115 189 213 215 466 4 39 15 73 40 113 33 55 42 102 28 139
-6 15 -8 15 -20 -1 -9 -13 -13 -14 -14 -4 0 11 -3 11 -17 1 -10 -8 -1 2 20 22
27 25 37 43 37 65 0 40 -24 39 -57 -4 -14 -18 -30 -33 -37 -33 -6 0 -4 5 4 10
8 5 11 10 7 10 -4 0 -20 -8 -35 -17 l-27 -18 23 33 c13 17 26 32 30 32 4 0 18
10 32 23 14 13 34 28 45 35 19 10 18 12 -13 23 -31 10 -33 15 -28 42 3 16 6
34 6 38 0 5 11 14 25 19 31 12 32 26 3 34 l-23 7 23 11 c12 6 22 15 22 19 0 5
-15 1 -34 -7 -32 -16 -37 -15 -142 20 -123 41 -125 41 -118 22 6 -15 -51 -136
-64 -136 -4 0 -32 7 -62 15 -69 19 -65 19 -67 -6 -2 -17 1 -19 10 -10 14 14
31 14 78 1 l37 -10 -19 -40 c-13 -26 -33 -47 -57 -59 -20 -10 -93 -52 -162
-93 -69 -41 -134 -78 -145 -82 -11 -5 -15 -10 -9 -12 6 -3 62 27 125 65 62 38
115 68 117 66 2 -2 -3 -28 -12 -58 -23 -80 -78 -148 -145 -180 -31 -15 -61
-27 -67 -27 -6 0 -16 33 -22 73 -6 39 -14 81 -17 92 -5 16 0 24 20 35 15 8 33
27 41 42 20 39 17 48 -4 13 -34 -56 -72 -70 -72 -27 0 27 -38 139 -39 117 -1
-16 -3 -17 -10 -5 -5 8 -11 29 -15 45 l-6 30 15 -25 c17 -30 19 -24 4 18 -6
18 -15 30 -19 27 -4 -3 -11 2 -14 11 -3 8 -2 12 4 9 6 -4 5 5 -2 20 -9 19 -14
22 -21 13 -6 -9 -7 -7 -3 6 5 13 -7 35 -39 73 -25 30 -42 60 -38 66 3 6 1 7
-5 3 -7 -4 -39 9 -73 29 -85 50 -126 65 -168 64 -20 -1 -28 -3 -18 -6z m-103
-150 c0 -1 -13 -9 -30 -18 -31 -16 -33 -16 -25 7 5 11 55 21 55 11z m1203 -55
c43 -13 47 -25 12 -34 -14 -3 -25 -10 -25 -16 0 -5 -6 -6 -12 -2 -7 4 -10 4
-6 -1 5 -4 -17 -20 -48 -33 -46 -21 -59 -24 -75 -14 -10 7 -26 12 -34 12 -13
0 -12 7 6 43 12 23 28 52 36 64 16 24 2 26 146 -19z m63 -80 c-3 -24 -5 -46
-5 -50 -1 -11 -48 -8 -106 6 l-50 13 75 36 c41 20 78 37 83 37 4 0 6 -19 3
-42z m-911 12 c3 -5 1 -10 -4 -10 -6 0 -11 5 -11 10 0 6 2 10 4 10 3 0 8 -4
11 -10z m63 -97 c65 -102 95 -162 88 -178 -2 -7 4 -15 15 -18 22 -6 26 -42 5
-50 -14 -6 -25 13 -32 50 -3 15 -105 226 -113 233 -18 15 -32 40 -23 40 5 0
32 -35 60 -77z m612 43 c0 -2 -7 -6 -15 -10 -8 -3 -15 -1 -15 4 0 6 7 10 15
10 8 0 15 -2 15 -4z m270 -54 c0 -5 -14 -18 -31 -31 l-30 -23 16 31 c14 28 45
43 45 23z m-390 -42 c0 -6 -7 -13 -15 -16 -8 -4 -13 -10 -10 -14 2 -4 -9 -27
-26 -51 -44 -61 -53 -69 -38 -34 7 17 21 37 31 47 22 20 23 29 3 22 -23 -9
-18 4 11 31 29 27 44 32 44 15z m400 -30 c-6 -11 -13 -20 -16 -20 -2 0 0 9 6
20 6 11 13 20 16 20 2 0 0 -9 -6 -20z m-51 -87 c-13 -21 -33 -54 -46 -73 -25
-37 -32 -67 -8 -37 13 18 14 18 24 -2 10 -18 9 -20 -18 -16 -27 3 -33 -3 -86
-90 -31 -51 -63 -96 -71 -99 -9 -3 -39 -6 -67 -6 -29 0 -81 -5 -117 -10 -36
-5 -101 -12 -145 -16 l-80 -7 63 53 c34 28 59 57 55 62 -3 7 -1 8 6 4 6 -4 28
5 49 22 39 31 142 86 142 77 0 -3 10 5 23 18 43 47 169 131 173 115 0 -1 8 3
17 10 17 15 62 30 90 31 17 1 17 -2 -4 -36z m31 -48 c0 -7 -7 -26 -15 -41
l-15 -29 -1 25 c-1 14 0 30 1 35 1 6 3 15 3 22 0 15 27 4 27 -12z m-770 -106
c11 -39 6 -64 -10 -54 -5 3 -16 -2 -24 -11 -9 -8 -16 -11 -16 -5 0 6 -15 4
-36 -5 -44 -18 -174 -32 -159 -16 20 21 220 140 227 136 4 -3 12 -23 18 -45z
m-1940 -26 c0 -5 -18 -8 -40 -8 -23 -1 -34 2 -27 7 15 10 67 10 67 1z m1959
-47 c-2 -2 -15 -7 -29 -10 l-25 -7 25 15 c21 12 42 14 29 2z m621 -21 c0 -5
-5 -3 -10 5 -5 8 -10 20 -10 25 0 6 5 3 10 -5 5 -8 10 -19 10 -25z m14 -31 c3
-8 2 -12 -4 -9 -6 3 -10 10 -10 16 0 14 7 11 14 -7z m-49 -15 c-4 -5 -12 -9
-18 -8 -9 0 -8 2 1 6 6 2 9 10 6 15 -4 7 -2 8 5 4 6 -4 9 -12 6 -17z m-632
-86 c-7 -2 -19 -2 -25 0 -7 3 -2 5 12 5 14 0 19 -2 13 -5z m227 -23 c-17 -5
-19 -8 -7 -9 9 -1 17 -5 17 -11 0 -5 -8 -10 -17 -11 -15 0 -15 -2 2 -8 18 -7
17 -9 -12 -24 -17 -9 -33 -22 -35 -28 -5 -16 -49 -19 -67 -5 -12 9 -13 8 -8
-6 4 -12 2 -18 -7 -18 -8 0 -17 -6 -20 -12 -3 -7 -2 1 1 17 7 36 40 85 56 85
7 0 23 9 37 20 14 11 39 19 55 19 29 -1 29 -1 5 -9z m170 -11 c0 -6 -7 -9 -15
-5 -9 3 -15 0 -15 -9 0 -8 -4 -15 -9 -15 -5 0 -11 -9 -14 -20 -6 -24 -25 -26
-34 -4 -8 21 35 63 65 63 12 1 22 -4 22 -10z m50 1 c0 -5 -4 -10 -9 -10 -6 0
-13 5 -16 10 -3 6 1 10 9 10 9 0 16 -4 16 -10z m57 -6 c-3 -3 -12 -4 -19 -1
-8 3 -5 6 6 6 11 1 17 -2 13 -5z m-2777 -64 c-8 -5 -19 -10 -25 -10 -5 0 -3 5
5 10 8 5 20 10 25 10 6 0 3 -5 -5 -10z m1951 -211 c-13 -10 -28 -19 -35 -19
-6 1 2 12 19 25 16 13 32 22 35 19 3 -3 -6 -14 -19 -25z m-1087 -11 c-3 -4
-11 -5 -19 -1 -21 7 -19 12 4 10 11 0 18 -5 15 -9z m216 -70 c0 -5 -12 -5 -27
-2 -40 10 -42 15 -5 12 18 -1 32 -6 32 -10z m114 -6 c3 -5 27 -8 53 -6 47 1
89 -18 77 -37 -3 -5 3 -6 13 -2 14 5 15 3 7 -6 -9 -10 -17 -10 -32 -2 -10 6
-22 8 -24 5 -3 -2 -36 4 -74 15 -38 11 -58 20 -44 20 20 1 22 3 10 11 -9 6
-10 10 -3 10 6 0 14 -4 17 -8z m154 -9 c36 -23 85 -63 77 -63 -12 0 -93 51
-105 65 -16 20 -5 19 28 -2z m-171 -29 c-3 -3 -12 -4 -19 -1 -8 3 -5 6 6 6 11
1 17 -2 13 -5z m299 -10 c18 -14 18 -15 -6 -8 -31 8 -50 24 -29 24 8 0 24 -7
35 -16z m41 -30 c-3 -3 -12 -4 -19 -1 -8 3 -5 6 6 6 11 1 17 -2 13 -5z m139
-108 c10 -8 16 -17 13 -20 -3 -3 -16 3 -29 14 -26 23 -14 27 16 6z"/>
<path d="M9789 3053 c-13 -16 -12 -17 4 -4 16 13 21 21 13 21 -2 0 -10 -8 -17
-17z"/>
<path d="M9710 3005 c-14 -8 -20 -14 -14 -15 5 0 19 7 30 15 24 18 16 19 -16
0z"/>
<path d="M9514 2894 c-18 -14 -18 -15 4 -4 12 6 22 13 22 15 0 8 -5 6 -26 -11z"/>
<path d="M937 3591 c-14 -21 -47 -65 -73 -97 -26 -33 -40 -52 -30 -44 30 24
145 180 133 180 -2 0 -16 -17 -30 -39z"/>
<path d="M9288 3603 c7 -3 16 -2 19 1 4 3 -2 6 -13 5 -11 0 -14 -3 -6 -6z"/>
<path d="M7699 3573 c-13 -16 -12 -17 4 -4 16 13 21 21 13 21 -2 0 -10 -8 -17
-17z"/>
<path d="M8805 3570 c-3 -5 -1 -10 4 -10 6 0 11 5 11 10 0 6 -2 10 -4 10 -3 0
-8 -4 -11 -10z"/>
<path d="M8240 3506 c-6 -24 -10 -52 -7 -62 3 -14 5 -12 6 7 0 14 6 40 12 58
6 18 9 34 7 37 -3 2 -11 -15 -18 -40z"/>
<path d="M9060 3540 c8 -5 22 -9 30 -9 10 0 8 3 -5 9 -27 12 -43 12 -25 0z"/>
<path d="M9494 3543 c4 -4 19 -8 34 -10 23 -2 24 -1 7 7 -24 11 -51 13 -41 3z"/>
<path d="M1725 3520 c-3 -5 -1 -10 4 -10 6 0 11 5 11 10 0 6 -2 10 -4 10 -3 0
-8 -4 -11 -10z"/>
<path d="M9144 3505 c11 -8 24 -15 30 -15 5 0 1 7 -10 15 -10 8 -23 14 -29 14
-5 0 -1 -6 9 -14z"/>
<path d="M2870 3500 c-13 -8 -13 -10 2 -10 9 0 20 5 23 10 8 13 -5 13 -25 0z"/>
<path d="M9197 3479 c7 -7 15 -10 18 -7 3 3 -2 9 -12 12 -14 6 -15 5 -6 -5z"/>
<path d="M2816 3455 c-11 -8 -15 -15 -9 -15 6 0 16 7 23 15 16 19 11 19 -14 0z"/>
<path d="M9270 3445 c14 -8 30 -14 35 -14 6 0 -1 6 -15 14 -14 8 -29 14 -35
14 -5 0 1 -6 15 -14z"/>
<path d="M709 3328 c-58 -57 -135 -125 -170 -153 -35 -27 -100 -88 -144 -135
l-80 -85 80 77 c54 53 90 80 113 84 17 4 32 10 32 15 0 5 -8 6 -17 3 -10 -3
-2 8 17 25 19 17 41 31 48 31 7 0 11 3 8 8 -2 4 17 25 42 47 49 42 189 185
181 185 -3 0 -52 -46 -110 -102z"/>
<path d="M2763 3423 c-13 -2 -23 -8 -23 -12 0 -5 -24 -11 -53 -14 -29 -4 -88
-16 -131 -27 -44 -11 -81 -18 -84 -16 -2 3 9 8 24 12 16 4 38 14 49 22 l20 14
-20 -7 c-11 -4 -38 -11 -60 -15 -39 -7 -112 -37 -458 -191 -99 -44 -105 -46
-86 -21 7 9 0 5 -16 -9 -37 -32 -90 -54 -106 -43 -7 4 -10 3 -6 -3 9 -14 -67
-45 -89 -36 -11 4 -15 2 -11 -4 10 -15 -54 -43 -100 -43 -21 0 -45 -4 -52 -9
-10 -6 0 -8 29 -4 35 5 42 4 35 -8 -7 -11 -6 -12 6 -3 38 30 111 15 74 -16
-12 -10 -15 -10 -15 1 0 10 -3 10 -12 1 -16 -16 -31 -15 -22 1 5 8 2 7 -10 -2
-11 -9 -14 -17 -7 -24 7 -7 15 -6 26 3 8 7 18 10 21 7 3 -3 -3 -10 -14 -16
-15 -8 -29 -7 -51 2 -17 7 -29 16 -25 19 3 4 -3 4 -14 2 -10 -3 -26 2 -35 10
-8 9 -21 16 -27 16 -6 0 -28 9 -50 20 -31 16 -38 17 -34 5 4 -8 11 -15 17 -15
6 0 2 -7 -9 -15 -18 -14 -17 -14 9 -5 23 8 37 5 77 -15 31 -16 50 -32 50 -43
0 -11 3 -13 8 -5 5 8 20 6 54 -9 l46 -20 -49 -51 c-27 -28 -52 -48 -55 -44 -4
4 -1 15 7 24 12 16 12 17 -1 6 -14 -11 -19 -13 -37 -13 -5 0 1 -7 11 -15 16
-12 17 -18 8 -27 -9 -9 -12 -9 -12 1 0 7 -4 9 -10 6 -5 -3 -10 -1 -10 5 0 6
-5 8 -11 4 -8 -4 -7 -9 2 -14 10 -7 10 -12 -1 -27 -13 -16 -12 -16 8 1 12 11
22 16 22 11 0 -4 35 26 78 66 42 41 96 88 119 104 23 17 45 36 48 44 5 12 3
12 -11 1 -11 -10 -18 -10 -22 -3 -8 13 -28 1 -52 -32 -12 -17 -10 -16 11 3 32
28 48 29 23 1 -27 -30 -52 -41 -70 -31 -13 7 -8 16 29 48 43 37 147 101 147
90 0 -3 -14 -13 -31 -22 -23 -12 -28 -19 -20 -27 8 -8 20 -7 46 7 35 19 72 16
59 -5 -4 -7 -3 -9 4 -6 14 9 43 -3 36 -14 -3 -5 -20 -7 -39 -3 -19 3 -35 1
-39 -5 -4 -6 -22 -12 -39 -12 -30 -2 -30 -2 -5 -6 26 -4 23 -9 -79 -111 -59
-59 -106 -111 -105 -115 1 -5 -3 -5 -9 -1 -6 3 -15 0 -20 -7 -4 -7 -23 -19
-41 -26 -18 -6 -25 -12 -15 -12 10 -1 35 8 57 19 22 11 46 20 55 20 20 0 99
50 91 58 -4 3 11 24 31 46 27 29 21 26 -17 -10 -30 -29 -71 -60 -90 -69 -29
-14 -18 0 55 75 114 116 141 136 160 120 8 -7 15 -8 15 -3 0 11 44 33 66 33 9
0 12 -5 8 -12 -4 -7 4 -4 17 8 37 31 159 109 172 109 7 0 44 16 82 36 95 49
296 129 341 136 30 5 36 3 29 -8 -4 -8 6 -1 23 15 29 27 33 28 109 23 103 -6
153 -14 187 -27 16 -6 31 -8 34 -5 3 3 0 5 -7 5 -7 0 -9 5 -5 12 5 7 2 9 -9 5
-9 -3 -17 -2 -19 3 -3 9 -42 17 -98 20 -23 1 -23 2 -5 10 18 8 17 9 -7 9 -40
1 -45 21 -6 23 25 1 21 3 -17 7 -44 6 -36 8 63 15 79 6 132 5 178 -4 36 -7 67
-10 70 -7 4 3 -11 9 -32 13 -36 7 -37 8 -14 14 38 10 -110 23 -218 19 -71 -3
-88 -1 -80 9 6 6 9 11 7 11 -2 -1 -14 -4 -26 -6z m82 -38 c-25 -9 -107 -12
-94 -4 8 5 34 8 59 8 25 0 41 -2 35 -4z m-155 -15 c-14 -4 -43 -8 -65 -8 -38
0 -39 1 -10 8 17 4 46 8 65 8 32 0 33 -1 10 -8z m-4 -39 c-6 -10 -155 -35
-163 -27 -7 6 29 16 100 26 28 4 56 8 60 9 5 0 6 -3 3 -8z m98 -6 c18 -14 15
-15 -40 -14 -32 1 -47 4 -31 6 15 2 27 9 27 14 0 13 22 10 44 -6z m-344 -49
c0 -7 -121 -49 -126 -43 -3 3 21 14 53 25 61 21 73 24 73 18z m5 -40 c-69 -26
-253 -124 -247 -131 4 -5 2 -5 -5 -1 -6 3 -47 -14 -90 -40 -43 -25 -89 -50
-102 -55 -21 -8 -22 -8 -11 6 8 9 8 15 2 15 -6 0 -13 -4 -17 -10 -3 -5 -12 -6
-21 -3 -24 9 16 45 96 87 73 39 85 43 74 24 -4 -7 -3 -8 5 -4 6 4 9 11 6 16
-5 8 115 53 122 46 2 -2 -19 -12 -47 -22 -27 -10 -50 -22 -50 -26 0 -5 17 -1
38 8 118 52 249 103 262 103 8 -1 2 -6 -15 -13z m-285 -61 c-14 -8 -29 -14
-35 -14 -5 0 1 6 15 14 14 8 30 14 35 14 6 0 -1 -6 -15 -14z m-130 -60 c-7 -8
-17 -15 -22 -15 -5 0 -23 -14 -41 -30 -30 -29 -58 -36 -58 -16 -1 8 115 76
129 76 2 0 -1 -7 -8 -15z m-270 -75 c0 -5 -5 -10 -11 -10 -5 0 -7 5 -4 10 3 6
8 10 11 10 2 0 4 -4 4 -10z"/>
<path d="M2035 3080 c-3 -6 1 -7 9 -4 18 7 21 14 7 14 -6 0 -13 -4 -16 -10z"/>
<path d="M9330 3422 c8 -5 26 -13 40 -16 17 -5 20 -4 10 2 -8 5 -26 13 -40 16
-17 5 -20 4 -10 -2z"/>
<path d="M2210 3395 c-26 -31 -102 -65 -258 -116 -89 -29 -160 -55 -158 -57 2
-2 62 15 133 37 71 23 134 41 141 41 7 0 -2 -14 -20 -31 -31 -29 -30 -28 12 4
59 45 76 53 130 62 24 4 60 14 80 21 l35 14 -45 -6 c-25 -3 -54 -8 -65 -10
-14 -4 -10 3 15 25 19 17 30 31 24 31 -6 0 -17 -7 -24 -15z"/>
<path d="M2155 3394 c-5 -2 -76 -15 -156 -29 -206 -35 -262 -56 -402 -148 -47
-31 -72 -53 -63 -55 9 -2 26 8 38 22 29 32 126 90 195 116 59 22 224 58 293
64 25 2 52 6 60 9 8 3 29 10 45 15 17 6 23 10 15 10 -8 0 -19 -1 -25 -4z"/>
<path d="M2318 3373 c7 -3 16 -2 19 1 4 3 -2 6 -13 5 -11 0 -14 -3 -6 -6z"/>
<path d="M9508 3280 c-2 -22 0 -40 4 -40 5 0 8 18 8 40 0 22 -2 40 -4 40 -2 0
-6 -18 -8 -40z"/>
<path d="M1455 3270 c-3 -5 -1 -10 4 -10 6 0 11 5 11 10 0 6 -2 10 -4 10 -3 0
-8 -4 -11 -10z"/>
<path d="M1525 3250 c-16 -7 -17 -9 -3 -9 9 -1 20 4 23 9 7 11 7 11 -20 0z"/>
<path d="M2900 3257 c0 -3 17 -17 37 -33 20 -15 33 -23 29 -16 -8 13 -66 56
-66 49z"/>
<path d="M1005 3240 c-3 -6 1 -7 9 -4 18 7 21 14 7 14 -6 0 -13 -4 -16 -10z"/>
<path d="M2613 3228 c-16 -23 -64 -118 -59 -118 3 0 17 23 33 50 26 46 31 50
58 45 17 -2 23 -2 15 1 -8 4 -20 13 -26 20 -9 11 -13 12 -21 2z"/>
<path d="M8199 3184 c-5 -15 -8 -29 -5 -31 2 -2 8 10 14 26 13 38 5 41 -9 5z"/>
<path d="M1400 3186 c-42 -23 -116 -43 -172 -49 -10 -1 -18 -4 -18 -8 0 -4
-15 -10 -34 -13 -50 -10 -266 -90 -372 -138 -129 -60 -201 -121 -308 -263 -50
-66 -126 -155 -169 -198 -42 -44 -77 -81 -77 -83 0 -3 9 0 21 6 19 11 20 10 6
-17 -8 -15 -20 -47 -26 -70 -10 -37 -15 -43 -39 -43 -16 0 -33 -5 -40 -12 -17
-17 -15 -53 3 -68 19 -16 19 -40 0 -40 -9 0 -15 -9 -15 -22 0 -23 -97 -156
-138 -188 -13 -11 -20 -20 -14 -20 12 0 104 100 139 152 l25 37 39 -25 c21
-13 41 -24 44 -24 3 0 5 14 5 30 0 20 5 30 15 30 21 0 19 30 -2 32 -10 0 -30
0 -46 -1 -32 -3 -35 9 -7 34 11 10 20 25 20 34 0 12 6 9 20 -9 10 -14 22 -22
25 -18 8 8 -13 50 -31 61 -25 15 44 156 133 268 135 171 227 281 264 313 78
67 281 158 484 216 61 17 137 40 170 51 33 11 85 20 115 21 47 1 49 2 15 5
-40 5 -40 5 -15 18 14 8 21 14 15 14 -5 0 -21 -6 -35 -13z m-1180 -920 c0 -8
-5 -18 -11 -22 -14 -8 -33 11 -25 25 10 16 36 13 36 -3z m20 -122 c0 -14 -3
-15 -17 -3 -10 7 -20 15 -22 16 -2 2 5 3 17 3 14 0 22 -6 22 -16z"/>
<path d="M3000 3175 c13 -14 26 -25 28 -25 3 0 -5 11 -18 25 -13 14 -26 25
-28 25 -3 0 5 -11 18 -25z"/>
<path d="M748 3183 c7 -3 16 -2 19 1 4 3 -2 6 -13 5 -11 0 -14 -3 -6 -6z"/>
<path d="M1658 3183 c7 -3 16 -2 19 1 4 3 -2 6 -13 5 -11 0 -14 -3 -6 -6z"/>
<path d="M208 3153 c12 -2 30 -2 40 0 9 3 -1 5 -23 4 -22 0 -30 -2 -17 -4z"/>
<path d="M288 3143 c6 -2 18 -2 25 0 6 3 1 5 -13 5 -14 0 -19 -2 -12 -5z"/>
<path d="M353 3133 c9 -2 23 -2 30 0 6 3 -1 5 -18 5 -16 0 -22 -2 -12 -5z"/>
<path d="M408 3123 c7 -3 16 -2 19 1 4 3 -2 6 -13 5 -11 0 -14 -3 -6 -6z"/>
<path d="M8165 3099 c-4 -6 -5 -12 -2 -15 2 -3 7 2 10 11 7 17 1 20 -8 4z"/>
<path d="M1345 3090 c3 -5 11 -10 16 -10 6 0 7 5 4 10 -3 6 -11 10 -16 10 -6
0 -7 -4 -4 -10z"/>
<path d="M2505 3029 c-4 -6 -5 -12 -2 -15 2 -3 7 2 10 11 7 17 1 20 -8 4z"/>
<path d="M2482 2988 c-7 -7 -12 -16 -12 -20 0 -4 -17 -36 -38 -70 -47 -77 -64
-108 -59 -108 4 0 95 150 124 203 6 11 -2 8 -15 -5z"/>
<path d="M3184 2981 c20 -22 26 -25 26 -13 0 4 -10 13 -22 21 -23 14 -23 14
-4 -8z"/>
<path d="M1436 2950 c3 -19 7 -44 9 -54 4 -18 -7 -51 -16 -45 -5 4 -131 -60
-144 -73 -5 -5 26 7 70 27 44 19 85 42 91 51 10 13 15 11 34 -13 13 -15 20
-20 17 -10 -7 20 -4 21 26 6 21 -10 21 -10 3 5 -19 16 -19 17 12 49 42 44 40
52 -5 24 -21 -13 -44 -27 -50 -31 -18 -10 -44 54 -29 73 8 11 8 13 -1 8 -6 -4
-14 -1 -17 5 -4 7 -4 -3 0 -22z m94 -53 c0 -2 -12 -14 -26 -28 -25 -22 -26
-23 -15 -2 9 18 19 26 39 32 1 1 2 0 2 -2z"/>
<path d="M1954 2966 c-8 -22 3 -33 18 -18 9 9 9 15 0 24 -9 9 -13 7 -18 -6z"/>
<path d="M1334 2958 c-5 -7 0 -9 14 -6 15 4 19 2 15 -8 -3 -8 -11 -14 -19 -14
-8 0 -14 -5 -14 -10 0 -7 7 -7 21 0 11 7 27 9 35 6 19 -7 18 -1 -3 24 -20 22
-38 26 -49 8z"/>
<path d="M3227 2959 c7 -7 15 -10 18 -7 3 3 -2 9 -12 12 -14 6 -15 5 -6 -5z"/>
<path d="M1919 2913 c-13 -17 -13 -17 6 -3 11 8 22 16 24 17 2 2 0 3 -6 3 -6
0 -17 -8 -24 -17z"/>
<path d="M8809 2913 c-13 -16 -12 -17 4 -4 16 13 21 21 13 21 -2 0 -10 -8 -17
-17z"/>
<path d="M2680 2874 c25 -21 59 -52 76 -69 17 -16 42 -39 55 -50 23 -19 23
-19 9 0 -26 34 -136 131 -170 150 -8 4 5 -10 30 -31z"/>
<path d="M3783 2838 c15 -20 27 -41 27 -47 0 -6 7 -11 16 -11 12 0 8 10 -16
40 -40 51 -64 66 -27 18z"/>
<path d="M3280 2856 c0 -3 9 -10 20 -16 11 -6 20 -8 20 -6 0 3 -9 10 -20 16
-11 6 -20 8 -20 6z"/>
<path d="M1785 2811 c-3 -5 -2 -12 3 -15 5 -3 9 1 9 9 0 17 -3 19 -12 6z"/>
<path d="M2910 2801 c0 -6 4 -13 10 -16 6 -3 7 1 4 9 -7 18 -14 21 -14 7z"/>
<path d="M8011 2784 c0 -11 3 -14 6 -6 3 7 2 16 -1 19 -3 4 -6 -2 -5 -13z"/>
<path d="M8950 2775 c-58 -13 -94 -23 -80 -24 27 -1 200 36 208 44 8 8 -14 4
-128 -20z"/>
<path d="M2336 2733 c-15 -25 -25 -48 -23 -50 2 -2 16 19 31 47 15 27 25 50
22 50 -2 0 -16 -21 -30 -47z"/>
<path d="M2708 2773 c6 -2 18 -2 25 0 6 3 1 5 -13 5 -14 0 -19 -2 -12 -5z"/>
<path d="M2925 2760 c3 -5 8 -10 11 -10 2 0 4 5 4 10 0 6 -5 10 -11 10 -5 0
-7 -4 -4 -10z"/>
<path d="M3877 2720 c22 -30 71 -111 108 -180 37 -69 71 -129 77 -135 5 -5
-16 40 -48 100 -63 121 -134 235 -161 256 -9 8 1 -11 24 -41z"/>
<path d="M7820 2745 c14 -8 30 -14 35 -14 6 0 -1 6 -15 14 -14 8 -29 14 -35
14 -5 0 1 -6 15 -14z"/>
<path d="M8739 2743 c-22 -13 -21 -13 21 -7 53 7 70 19 31 20 -16 1 -39 -5
-52 -13z"/>
<path d="M1270 2705 c-18 -19 -32 -36 -29 -38 2 -2 19 14 38 35 42 48 36 50
-9 3z"/>
<path d="M1493 2723 c-3 -10 -17 -34 -31 -53 l-25 -35 41 40 c23 22 37 42 32
43 -6 2 -8 8 -4 13 3 5 3 9 -1 9 -3 0 -8 -8 -12 -17z"/>
<path d="M8001 2714 c0 -11 3 -14 6 -6 3 7 2 16 -1 19 -3 4 -6 -2 -5 -13z"/>
<path d="M2875 2680 c10 -11 20 -20 23 -20 3 0 -3 9 -13 20 -10 11 -20 20 -23
20 -3 0 3 -9 13 -20z"/>
<path d="M7308 2673 c7 -3 16 -2 19 1 4 3 -2 6 -13 5 -11 0 -14 -3 -6 -6z"/>
<path d="M1005 2589 c-20 -39 -35 -75 -33 -81 4 -10 18 14 38 62 6 14 19 40
30 58 11 17 15 32 10 32 -5 0 -26 -32 -45 -71z"/>
<path d="M1204 2638 l-19 -23 23 19 c12 11 22 21 22 23 0 8 -8 2 -26 -19z"/>
<path d="M2965 2559 c36 -50 79 -116 96 -145 17 -30 33 -54 36 -54 13 0 -164
271 -187 285 -6 3 19 -35 55 -86z"/>
<path d="M1281 2612 c-9 -18 -9 -21 3 -16 8 3 17 1 21 -5 3 -6 14 -11 23 -10
11 0 12 2 4 6 -6 2 -9 10 -6 15 4 7 2 8 -4 4 -6 -3 -15 1 -20 10 -9 16 -11 15
-21 -4z"/>
<path d="M2265 2600 c-9 -16 -13 -30 -11 -30 3 0 12 14 21 30 9 17 13 30 11
30 -3 0 -12 -13 -21 -30z"/>
<path d="M1367 2591 c-39 -40 -17 -49 25 -11 20 19 26 28 14 24 -13 -5 -17 -4
-12 4 12 19 3 14 -27 -17z"/>
<path d="M1160 2595 c-7 -8 -17 -12 -23 -8 -6 4 -7 1 -2 -6 4 -8 -4 -25 -21
-45 -18 -19 -14 -17 8 5 21 21 45 42 54 47 10 5 12 12 6 16 -5 3 -15 -1 -22
-9z"/>
<path d="M948 2583 c7 -3 16 -2 19 1 4 3 -2 6 -13 5 -11 0 -14 -3 -6 -6z"/>
<path d="M863 2560 c-24 -10 -43 -21 -43 -24 0 -3 19 3 43 13 23 10 49 20 57
24 13 5 13 5 0 6 -8 0 -34 -8 -57 -19z"/>
<path d="M6839 2554 c-23 -25 -23 -26 -2 -13 13 7 25 19 27 26 8 19 2 16 -25
-13z"/>
<path d="M7820 2570 l-35 -7 42 -2 c23 0 45 4 48 9 7 11 -3 11 -55 0z"/>
<path d="M8220 2576 c0 -2 7 -7 16 -10 8 -3 12 -2 9 4 -6 10 -25 14 -25 6z"/>
<path d="M1431 2540 c-13 -11 -19 -20 -14 -20 6 0 18 9 28 20 23 25 17 25 -14
0z"/>
<path d="M8295 2540 c27 -12 43 -12 25 0 -8 5 -22 9 -30 9 -10 0 -8 -3 5 -9z"/>
<path d="M2206 2504 c-16 -20 -23 -35 -15 -32 12 4 57 68 47 68 -1 0 -16 -16
-32 -36z"/>
<path d="M8248 2533 c7 -3 16 -2 19 1 4 3 -2 6 -13 5 -11 0 -14 -3 -6 -6z"/>
<path d="M8347 2519 c7 -7 15 -10 18 -7 3 3 -2 9 -12 12 -14 6 -15 5 -6 -5z"/>
<path d="M1145 2375 c-78 -80 -136 -145 -130 -145 12 0 85 73 139 142 21 26
42 45 47 42 5 -3 8 -1 7 4 -2 5 20 30 47 55 28 25 46 46 41 47 -5 0 -73 -65
-151 -145z"/>
<path d="M7700 2500 c8 -5 20 -10 25 -10 6 0 3 5 -5 10 -8 5 -19 10 -25 10 -5
0 -3 -5 5 -10z"/>
<path d="M7660 2496 c0 -2 7 -7 16 -10 8 -3 12 -2 9 4 -6 10 -25 14 -25 6z"/>
<path d="M8410 2490 c8 -5 20 -10 25 -10 6 0 3 5 -5 10 -8 5 -19 10 -25 10 -5
0 -3 -5 5 -10z"/>
<path d="M952 2465 c-17 -37 -14 -45 4 -12 9 16 14 31 11 33 -2 2 -9 -7 -15
-21z"/>
<path d="M188 2475 c-3 -3 -18 -8 -34 -11 -16 -3 -31 -8 -34 -11 -3 -3 5 -3
18 0 40 10 23 -2 -58 -40 -59 -27 -80 -42 -80 -56 0 -18 2 -18 23 -5 12 8 47
29 77 47 62 36 120 81 104 81 -6 0 -13 -2 -16 -5z"/>
<path d="M7467 2469 c7 -7 15 -10 18 -7 3 3 -2 9 -12 12 -14 6 -15 5 -6 -5z"/>
<path d="M13 2443 c9 -2 23 -2 30 0 6 3 -1 5 -18 5 -17 0 -22 -2 -12 -5z"/>
<path d="M7455 2430 c-3 -5 -1 -10 4 -10 6 0 11 5 11 10 0 6 -2 10 -4 10 -3 0
-8 -4 -11 -10z"/>
<path d="M7830 2436 c0 -2 9 -6 20 -9 11 -3 18 -1 14 4 -5 9 -34 13 -34 5z"/>
<path d="M7973 2433 c9 -2 23 -2 30 0 6 3 -1 5 -18 5 -16 0 -22 -2 -12 -5z"/>
<path d="M919 2398 c-7 -13 -19 -34 -27 -48 -14 -24 -13 -24 3 -5 20 24 48 75
41 75 -3 0 -11 -10 -17 -22z"/>
<path d="M4080 2371 c5 -11 15 -23 21 -27 6 -3 3 5 -6 20 -20 30 -30 35 -15 7z"/>
<path d="M7613 2370 c14 -11 28 -20 32 -20 4 0 -4 9 -18 20 -14 11 -28 20 -32
20 -4 0 4 -9 18 -20z"/>
<path d="M8512 2363 c-18 -8 -31 -18 -28 -20 5 -5 66 25 66 32 0 7 -1 7 -38
-12z"/>
<path d="M1234 2318 l-29 -33 33 29 c17 17 32 31 32 33 0 8 -8 1 -36 -29z"/>
<path d="M50 2309 c-22 -18 -22 -19 -3 -10 12 6 25 16 28 21 9 15 3 12 -25
-11z"/>
<path d="M859 2303 c-13 -16 -12 -17 4 -4 9 7 17 15 17 17 0 8 -8 3 -21 -13z"/>
<path d="M989 2303 c-13 -16 -12 -17 4 -4 9 7 17 15 17 17 0 8 -8 3 -21 -13z"/>
<path d="M1146 2280 c-15 -22 -24 -45 -21 -50 3 -5 1 -11 -5 -15 -5 -3 -10
-10 -10 -16 0 -18 15 -8 32 22 10 16 13 27 8 24 -16 -10 -12 5 11 37 12 16 19
31 17 34 -3 2 -17 -14 -32 -36z"/>
<path d="M7715 2288 c5 -13 45 -42 50 -36 1 2 -11 13 -26 26 -16 13 -27 17
-24 10z"/>
<path d="M922 2219 c-49 -58 -70 -96 -37 -69 8 7 13 16 10 20 -3 4 2 13 10 20
19 16 79 90 72 90 -2 0 -27 -27 -55 -61z"/>
<path d="M7687 2269 c7 -7 15 -10 18 -7 3 3 -2 9 -12 12 -14 6 -15 5 -6 -5z"/>
<path d="M1224 2238 l-19 -23 23 19 c21 18 27 26 19 26 -2 0 -12 -10 -23 -22z"/>
<path d="M8008 2233 c7 -3 16 -2 19 1 4 3 -2 6 -13 5 -11 0 -14 -3 -6 -6z"/>
<path d="M965 2220 c-3 -5 -2 -10 4 -10 5 0 13 5 16 10 3 6 2 10 -4 10 -5 0
-13 -4 -16 -10z"/>
<path d="M309 2203 c-13 -16 -12 -17 4 -4 9 7 17 15 17 17 0 8 -8 3 -21 -13z"/>
<path d="M929 2193 c-13 -16 -12 -17 4 -4 9 7 17 15 17 17 0 8 -8 3 -21 -13z"/>
<path d="M9379 2169 l-24 -20 28 17 c15 9 27 18 27 20 0 8 -8 4 -31 -17z"/>
<path d="M1111 2173 c-1 -6 -4 -20 -7 -30 -5 -17 -5 -17 6 0 6 10 9 23 6 30
-3 9 -5 9 -5 0z"/>
<path d="M7940 2175 c0 -8 61 -36 70 -33 5 2 -9 11 -30 20 -22 9 -40 15 -40
13z"/>
<path d="M1014 2138 c-56 -63 -77 -88 -72 -88 3 0 28 27 57 60 55 63 66 83 15
28z"/>
<path d="M9329 2133 c-13 -16 -12 -17 4 -4 16 13 21 21 13 21 -2 0 -10 -8 -17
-17z"/>
<path d="M9055 2120 c-3 -5 1 -10 9 -10 9 0 16 5 16 10 0 6 -4 10 -9 10 -6 0
-13 -4 -16 -10z"/>
<path d="M176 2077 c-12 -9 -17 -23 -14 -42 3 -34 22 -36 23 -3 0 12 6 23 13
25 7 3 12 -4 12 -16 0 -14 5 -19 14 -15 8 3 12 12 10 19 -7 18 16 30 27 14 5
-8 7 -22 5 -31 -2 -11 2 -18 11 -18 10 0 13 9 11 31 -4 40 -30 59 -57 42 -11
-7 -22 -8 -28 -2 -6 6 -16 4 -27 -4z"/>
<path d="M854 2040 c-6 -6 -20 -12 -32 -15 -11 -2 -29 -8 -40 -14 -10 -5 -27
-10 -38 -10 -10 1 -46 -8 -79 -19 -40 -12 -69 -16 -83 -11 -15 6 -37 1 -74
-16 -29 -14 -68 -28 -85 -31 -18 -3 -33 -10 -33 -15 0 -5 -8 -9 -17 -9 -9 0
-14 -3 -11 -6 4 -3 39 5 80 17 40 12 79 22 86 20 7 -1 11 4 10 11 -2 8 8 14
27 15 29 2 29 2 5 -7 -54 -20 34 -2 125 25 50 15 100 27 112 27 12 0 32 11 44
24 22 23 24 35 3 14z"/>
<path d="M9183 2034 c4 -4 1 -14 -6 -22 -10 -13 -9 -14 11 -3 27 14 27 17 5
25 -10 4 -14 4 -10 0z"/>
<path d="M8748 2013 c7 -3 16 -2 19 1 4 3 -2 6 -13 5 -11 0 -14 -3 -6 -6z"/>
<path d="M176 1974 c-20 -19 -21 -48 -2 -63 18 -15 78 -33 71 -21 -7 11 25 21
67 22 l33 1 -32 13 c-17 8 -35 20 -40 27 -10 17 -46 37 -67 37 -8 0 -22 -7
-30 -16z m41 -38 c-4 -9 -11 -16 -17 -16 -17 0 -24 31 -9 41 18 11 34 -5 26
-25z m43 -12 c0 -8 -6 -14 -14 -14 -9 0 -12 7 -9 20 6 22 23 18 23 -6z"/>
<path d="M808 1964 c-39 -21 -35 -28 5 -8 37 19 44 24 31 24 -5 -1 -21 -8 -36
-16z"/>
<path d="M20 1935 c-14 -8 -21 -14 -15 -14 6 0 21 6 35 14 14 8 21 14 15 14
-5 0 -21 -6 -35 -14z"/>
<path d="M9380 1880 c53 -48 107 -89 97 -73 -4 6 -37 34 -75 63 -57 44 -61 45
-22 10z"/>
<path d="M78 1861 c-43 -14 -78 -29 -78 -32 0 -3 32 0 72 8 40 7 77 12 82 10
6 -2 9 -44 7 -105 -2 -68 1 -102 8 -102 6 0 11 14 11 30 0 17 2 30 4 30 2 0
25 -9 51 -21 44 -20 63 -20 52 -2 -3 4 -28 17 -56 28 -47 18 -51 22 -51 52 0
37 1 38 38 19 40 -20 72 -28 72 -18 0 5 -22 19 -50 32 -62 29 -69 57 -12 52
21 -2 50 3 67 12 30 16 30 16 -38 16 -43 0 -66 4 -62 10 10 16 -34 9 -117 -19z"/>
<path d="M9524 1767 c21 -19 53 -42 70 -52 44 -25 31 -14 -44 40 -46 33 -54
36 -26 12z"/>
<path d="M9630 1696 c0 -3 9 -10 20 -16 11 -6 20 -8 20 -6 0 3 -9 10 -20 16
-11 6 -20 8 -20 6z"/>
<path d="M160 1611 c0 -17 12 -41 21 -41 5 0 9 7 9 15 0 11 12 15 50 15 28 0
50 5 50 10 0 6 -28 10 -65 10 -36 0 -65 -4 -65 -9z"/>
<path d="M9868 1583 c6 -2 18 -2 25 0 6 3 1 5 -13 5 -14 0 -19 -2 -12 -5z"/>
<path d="M176 1544 c-20 -19 -20 -48 -1 -64 20 -17 48 -9 61 19 l12 23 11 -21
c12 -22 31 -28 31 -10 0 18 -57 69 -79 69 -11 0 -27 -7 -35 -16z m41 -38 c-4
-9 -11 -16 -17 -16 -17 0 -24 31 -9 41 18 11 34 -5 26 -25z"/>
<path d="M190 1449 c0 -5 -4 -7 -10 -4 -5 3 -10 2 -10 -4 0 -5 6 -12 13 -15 9
-5 9 -7 0 -12 -10 -4 -9 -9 2 -20 8 -9 20 -12 26 -8 6 3 14 1 18 -5 5 -8 15
-9 31 -3 19 7 21 10 7 15 -23 9 -22 28 1 20 13 -5 12 -1 -5 15 -13 13 -29 19
-37 16 -9 -3 -16 -1 -16 5 0 6 -4 11 -10 11 -5 0 -10 -5 -10 -11z m40 -39 c0
-5 -4 -10 -10 -10 -5 0 -10 5 -10 10 0 6 5 10 10 10 6 0 10 -4 10 -10z"/>
<path d="M135 1280 c3 -6 48 -10 101 -10 56 0 94 4 94 10 0 6 -40 10 -101 10
-64 0 -98 -4 -94 -10z"/>
<path d="M190 1201 c0 -8 7 -23 17 -33 15 -17 14 -18 -25 -18 -31 0 -42 -4
-42 -15 0 -12 15 -15 75 -15 60 0 75 3 75 15 0 9 -9 15 -22 15 l-22 0 22 16
c12 8 22 22 22 30 0 13 -5 12 -28 -5 l-29 -20 -21 22 c-15 15 -22 17 -22 8z"/>
<path d="M9518 1193 c7 -3 16 -2 19 1 4 3 -2 6 -13 5 -11 0 -14 -3 -6 -6z"/>
<path d="M9438 1183 c12 -2 30 -2 40 0 9 3 -1 5 -23 4 -22 0 -30 -2 -17 -4z"/>
<path d="M9348 1173 c12 -2 32 -2 45 0 12 2 2 4 -23 4 -25 0 -35 -2 -22 -4z"/>
<path d="M9298 1163 c7 -3 16 -2 19 1 4 3 -2 6 -13 5 -11 0 -14 -3 -6 -6z"/>
<path d="M9175 1149 c-33 -5 -64 -11 -70 -14 -18 -8 109 4 140 14 37 12 11 12
-70 0z"/>
<path d="M9076 1075 c-75 -52 -79 -62 -7 -16 71 46 79 51 65 50 -5 0 -31 -15
-58 -34z"/>
<path d="M190 1084 c0 -31 20 -54 48 -54 34 0 52 16 52 47 0 29 -12 30 -25 1
-6 -13 -17 -23 -25 -23 -8 0 -19 10 -25 23 -11 25 -25 29 -25 6z"/>
<path d="M202 998 c-15 -15 -15 -51 0 -66 7 -7 24 -12 38 -12 30 0 50 16 50
41 0 40 -60 65 -88 37z m63 -33 c0 -22 -31 -33 -47 -17 -17 17 -1 44 24 40 15
-2 23 -10 23 -23z"/>
<path d="M9902 981 c2 -7 12 -24 23 -36 11 -12 28 -34 38 -49 10 -14 22 -26
27 -26 5 0 -2 11 -16 25 -14 14 -23 29 -20 34 3 4 -8 21 -25 37 -17 16 -29 23
-27 15z"/>
<path d="M190 900 c0 -5 -7 -10 -15 -10 -8 0 -15 -4 -15 -10 0 -5 6 -10 14
-10 8 0 16 -6 19 -12 4 -10 7 -10 18 0 7 6 28 12 46 12 26 0 33 4 33 20 0 11
-4 20 -10 20 -5 0 -10 -4 -10 -10 0 -5 -13 -10 -30 -10 -16 0 -30 5 -30 10 0
6 -4 10 -10 10 -5 0 -10 -4 -10 -10z"/>
<path d="M8368 873 c7 -3 16 -2 19 1 4 3 -2 6 -13 5 -11 0 -14 -3 -6 -6z"/>
<path d="M8408 853 c6 -2 18 -2 25 0 6 3 1 5 -13 5 -14 0 -19 -2 -12 -5z"/>
<path d="M212 810 c-19 -33 -37 -34 -36 -1 0 11 -5 21 -13 21 -16 0 -17 -42
-1 -58 21 -21 48 -13 66 18 20 35 37 34 37 -4 -1 -31 19 -29 23 3 8 53 -49 69
-76 21z"/>
<path d="M200 675 c-22 -26 3 -65 40 -65 35 0 58 36 45 67 -7 16 -9 15 -13 -7
-6 -40 -22 -48 -22 -12 0 25 -4 32 -19 32 -10 0 -24 -7 -31 -15z m30 -26 c0
-11 -4 -17 -10 -14 -5 3 -10 13 -10 21 0 8 5 14 10 14 6 0 10 -9 10 -21z"/>
<path d="M197 560 c-8 -21 -18 -30 -34 -30 -14 0 -23 -6 -23 -15 0 -13 13 -15
73 -13 67 3 72 5 75 26 5 30 -24 62 -55 62 -18 0 -28 -8 -36 -30z m61 -2 c19
-19 14 -28 -18 -28 -18 0 -30 5 -30 13 0 28 27 36 48 15z"/>
<path d="M206 464 c-19 -18 -20 -28 -6 -55 21 -39 90 -16 90 30 0 16 -30 41
-50 41 -10 0 -26 -7 -34 -16z m59 -29 c0 -22 -31 -33 -47 -17 -17 17 -1 44 24
40 15 -2 23 -10 23 -23z"/>
<path d="M163 362 c-31 -5 -29 -22 2 -22 15 0 25 -6 25 -14 0 -22 29 -46 56
-46 27 0 51 38 41 63 -6 15 -77 26 -124 19z m105 -39 c-2 -12 -12 -18 -28 -18
-16 0 -26 6 -28 18 -3 13 3 17 28 17 25 0 31 -4 28 -17z"/>
<path d="M220 246 c-36 -13 -66 -29 -68 -37 -1 -9 20 -21 68 -35 38 -12 70
-17 70 -12 0 6 -9 12 -20 15 -14 4 -20 14 -20 34 0 22 5 29 20 29 11 0 20 7
20 15 0 8 -1 15 -2 14 -2 0 -32 -11 -68 -23z m10 -35 c0 -14 -6 -17 -25 -13
-31 5 -32 19 -2 25 12 2 23 5 25 6 1 0 2 -7 2 -18z"/>
</g>
</svg>
